<svg width="25" height="24" viewBox="0 0 25 24" fill="none" xmlns="http://www.w3.org/2000/svg">
<g id="SVG">
<g id="Group">
<path id="Vector" d="M21.0306 12.5307L14.2806 19.2807C14.1399 19.4214 13.949 19.5005 13.75 19.5005C13.551 19.5005 13.3601 19.4214 13.2194 19.2807C13.0786 19.1399 12.9996 18.9491 12.9996 18.7501C12.9996 18.551 13.0786 18.3602 13.2194 18.2194L18.6897 12.7501H4C3.80109 12.7501 3.61032 12.671 3.46967 12.5304C3.32902 12.3897 3.25 12.199 3.25 12.0001C3.25 11.8011 3.32902 11.6104 3.46967 11.4697C3.61032 11.3291 3.80109 11.2501 4 11.2501H18.6897L13.2194 5.78068C13.0786 5.63995 12.9996 5.44907 12.9996 5.25005C12.9996 5.05103 13.0786 4.86016 13.2194 4.71943C13.3601 4.5787 13.551 4.49963 13.75 4.49963C13.949 4.49963 14.1399 4.5787 14.2806 4.71943L21.0306 11.4694C21.1004 11.5391 21.1557 11.6218 21.1934 11.7128C21.2312 11.8039 21.2506 11.9015 21.2506 12.0001C21.2506 12.0986 21.2312 12.1962 21.1934 12.2873C21.1557 12.3783 21.1004 12.461 21.0306 12.5307Z" fill="white"/>
</g>
</g>
</svg>
