<svg width="118" height="40" viewBox="0 0 118 40" fill="none" xmlns="http://www.w3.org/2000/svg">
<rect width="5.5914" height="40" fill="white"/>
<rect x="9.89246" width="5.5914" height="40" fill="white"/>
<rect x="21.9355" y="18.7095" width="5.5914" height="21.2903" fill="white"/>
<rect x="33.9785" width="5.5914" height="40" fill="white"/>
<path d="M54.4516 29.0624C53.7721 29.0194 53.1097 28.8818 52.4645 28.6495C51.8194 28.4172 51.2516 28.1033 50.7613 27.7076C50.2796 27.3033 49.9183 26.8301 49.6774 26.2882L51.9613 25.3076C52.0731 25.5398 52.2667 25.7678 52.5419 25.9914C52.8258 26.2151 53.157 26.4 53.5355 26.5463C53.914 26.6839 54.3097 26.7527 54.7226 26.7527C55.1269 26.7527 55.5011 26.6968 55.8452 26.585C56.1979 26.4646 56.486 26.2839 56.7097 26.043C56.9333 25.8022 57.0452 25.514 57.0452 25.1785C57.0452 24.8 56.9161 24.5076 56.6581 24.3011C56.4086 24.0861 56.0946 23.9226 55.7161 23.8108C55.3376 23.699 54.9591 23.5914 54.5807 23.4882C53.7376 23.299 52.9635 23.0409 52.2581 22.714C51.5613 22.3785 51.0065 21.9527 50.5936 21.4366C50.1807 20.9119 49.9742 20.271 49.9742 19.514C49.9742 18.6882 50.1979 17.9742 50.6452 17.3721C51.0925 16.7613 51.6774 16.2925 52.4 15.9656C53.1312 15.6387 53.9097 15.4753 54.7355 15.4753C55.7678 15.4753 56.714 15.6947 57.5742 16.1334C58.4344 16.5721 59.0925 17.1742 59.5484 17.9398L57.4194 19.2043C57.2903 18.9463 57.0968 18.714 56.8387 18.5076C56.5807 18.3011 56.2882 18.1377 55.9613 18.0172C55.6344 17.8882 55.2946 17.8151 54.9419 17.7979C54.5032 17.7807 54.0946 17.8323 53.7161 17.9527C53.3462 18.0646 53.0495 18.2452 52.8258 18.4947C52.6022 18.7441 52.4903 19.0624 52.4903 19.4495C52.4903 19.828 52.6237 20.1119 52.8903 20.3011C53.157 20.4818 53.4925 20.628 53.8968 20.7398C54.3097 20.8516 54.7312 20.9764 55.1613 21.114C55.9269 21.3549 56.6452 21.6517 57.3161 22.0043C57.9871 22.3484 58.529 22.7742 58.9419 23.2818C59.3548 23.7893 59.5527 24.4086 59.5355 25.1398C59.5355 25.9484 59.2903 26.6581 58.8 27.2689C58.3183 27.8796 57.6903 28.3441 56.9161 28.6624C56.1419 28.9807 55.3204 29.114 54.4516 29.0624Z" fill="white"/>
<path d="M68.5579 18.5979H65.8482L65.8353 28.8172H63.1514L63.1643 18.5979H61.1127V15.914H63.1643L63.1514 11.8624H65.8353L65.8482 15.914H68.5579V18.5979Z" fill="white"/>
<path d="M70.3518 23.9785V15.914H73.0357V23.3205C73.0357 23.8968 73.1776 24.4215 73.4615 24.8947C73.7454 25.3678 74.1239 25.7463 74.597 26.0301C75.0701 26.3054 75.5905 26.443 76.1583 26.443C76.7346 26.443 77.255 26.3054 77.7196 26.0301C78.1927 25.7463 78.5669 25.3678 78.8421 24.8947C79.126 24.4215 79.268 23.8968 79.268 23.3205V15.914H81.9518L81.9647 28.8172H79.2809L79.268 27.4237C78.8292 27.957 78.283 28.3785 77.6292 28.6882C76.9755 28.9979 76.2744 29.1527 75.526 29.1527C74.5712 29.1527 73.7024 28.9205 72.9196 28.456C72.1368 27.9914 71.5131 27.3678 71.0486 26.585C70.5841 25.8022 70.3518 24.9334 70.3518 23.9785Z" fill="white"/>
<path d="M94.4276 9.4624H97.1115V28.8172H94.4276V26.9205C94.0061 27.5914 93.4556 28.1334 92.776 28.5463C92.0964 28.9506 91.3007 29.1527 90.3889 29.1527C89.4513 29.1527 88.5739 28.9764 87.7567 28.6237C86.9395 28.271 86.2169 27.785 85.5889 27.1656C84.9696 26.5377 84.4835 25.8151 84.1309 24.9979C83.7782 24.1807 83.6018 23.3033 83.6018 22.3656C83.6018 21.428 83.7782 20.5506 84.1309 19.7334C84.4835 18.9076 84.9696 18.185 85.5889 17.5656C86.2169 16.9377 86.9395 16.4473 87.7567 16.0947C88.5739 15.742 89.4513 15.5656 90.3889 15.5656C91.3007 15.5656 92.0964 15.7721 92.776 16.185C93.4556 16.5893 94.0061 17.1226 94.4276 17.785V9.4624ZM90.4147 26.5592C91.1717 26.5592 91.8341 26.3742 92.4018 26.0043C92.9696 25.6258 93.4083 25.1183 93.718 24.4818C94.0362 23.8452 94.1954 23.1398 94.1954 22.3656C94.1954 21.5828 94.0362 20.8732 93.718 20.2366C93.3997 19.6 92.9567 19.0968 92.3889 18.7269C91.8298 18.3484 91.1717 18.1592 90.4147 18.1592C89.6663 18.1592 88.9825 18.3484 88.3631 18.7269C87.7524 19.1054 87.262 19.6129 86.8921 20.2495C86.5309 20.8861 86.3502 21.5914 86.3502 22.3656C86.3502 23.1484 86.5352 23.8581 86.905 24.4947C87.2835 25.1226 87.7782 25.6258 88.3889 26.0043C89.0083 26.3742 89.6835 26.5592 90.4147 26.5592Z" fill="white"/>
<path d="M100.203 15.914H102.887V28.8172H100.203V15.914ZM101.57 14.043C101.157 14.043 100.813 13.9097 100.538 13.643C100.263 13.3764 100.125 13.0409 100.125 12.6366C100.125 12.2409 100.263 11.9097 100.538 11.643C100.813 11.3678 101.153 11.2301 101.557 11.2301C101.953 11.2301 102.289 11.3678 102.564 11.643C102.839 11.9097 102.977 12.2409 102.977 12.6366C102.977 13.0409 102.839 13.3764 102.564 13.643C102.297 13.9097 101.966 14.043 101.57 14.043Z" fill="white"/>
<path d="M111.424 29.1527C110.237 29.1527 109.153 28.8473 108.173 28.2366C107.201 27.6258 106.422 26.8086 105.837 25.785C105.261 24.7527 104.973 23.6129 104.973 22.3656C104.973 21.4194 105.141 20.5377 105.476 19.7205C105.811 18.8947 106.272 18.1721 106.857 17.5527C107.45 16.9248 108.138 16.4344 108.921 16.0818C109.704 15.7291 110.538 15.5527 111.424 15.5527C112.611 15.5527 113.691 15.8581 114.663 16.4689C115.644 17.0796 116.422 17.9011 116.999 18.9334C117.584 19.9656 117.876 21.1097 117.876 22.3656C117.876 23.3033 117.708 24.1807 117.373 24.9979C117.037 25.8151 116.573 26.5377 115.979 27.1656C115.394 27.785 114.71 28.271 113.928 28.6237C113.153 28.9764 112.319 29.1527 111.424 29.1527ZM111.424 26.4689C112.138 26.4689 112.779 26.2796 113.347 25.9011C113.915 25.5226 114.362 25.0237 114.689 24.4043C115.024 23.7764 115.192 23.0968 115.192 22.3656C115.192 21.6172 115.02 20.9291 114.676 20.3011C114.341 19.6732 113.889 19.1742 113.321 18.8043C112.753 18.4258 112.121 18.2366 111.424 18.2366C110.719 18.2366 110.078 18.4258 109.502 18.8043C108.934 19.1828 108.482 19.6861 108.147 20.314C107.82 20.942 107.657 21.6258 107.657 22.3656C107.657 23.1312 107.829 23.8237 108.173 24.443C108.517 25.0624 108.973 25.557 109.541 25.9269C110.117 26.2882 110.745 26.4689 111.424 26.4689Z" fill="white"/>
</svg>
