<svg width="118" height="41" viewBox="0 0 118 41" fill="none" xmlns="http://www.w3.org/2000/svg">
<rect x="0.110001" y="0.5" width="5.5914" height="40" fill="#212123"/>
<rect x="10.0025" y="0.5" width="5.5914" height="40" fill="#212123"/>
<rect x="22.0455" y="19.2097" width="5.5914" height="21.2903" fill="#212123"/>
<rect x="34.0885" y="0.5" width="5.5914" height="40" fill="#212123"/>
<path d="M54.5616 29.5623C53.882 29.5193 53.2197 29.3817 52.5745 29.1494C51.9294 28.9172 51.3616 28.6032 50.8713 28.2075C50.3896 27.8032 50.0283 27.3301 49.7874 26.7881L52.0713 25.8075C52.1831 26.0398 52.3767 26.2677 52.6519 26.4914C52.9358 26.715 53.267 26.9 53.6455 27.0462C54.024 27.1838 54.4197 27.2527 54.8326 27.2527C55.2369 27.2527 55.6111 27.1968 55.9552 27.0849C56.3078 26.9645 56.596 26.7838 56.8197 26.543C57.0433 26.3021 57.1552 26.014 57.1552 25.6785C57.1552 25.3 57.0261 25.0075 56.7681 24.8011C56.5186 24.586 56.2046 24.4226 55.8261 24.3107C55.4476 24.1989 55.0691 24.0914 54.6906 23.9881C53.8476 23.7989 53.0734 23.5408 52.3681 23.214C51.6713 22.8785 51.1165 22.4527 50.7035 21.9365C50.2906 21.4118 50.0842 20.7709 50.0842 20.014C50.0842 19.1881 50.3078 18.4742 50.7552 17.872C51.2025 17.2613 51.7874 16.7924 52.51 16.4656C53.2412 16.1387 54.0197 15.9752 54.8455 15.9752C55.8777 15.9752 56.824 16.1946 57.6842 16.6333C58.5444 17.072 59.2025 17.6742 59.6584 18.4398L57.5294 19.7043C57.4003 19.4462 57.2068 19.214 56.9487 19.0075C56.6906 18.8011 56.3982 18.6376 56.0713 18.5172C55.7444 18.3881 55.4046 18.315 55.0519 18.2978C54.6132 18.2806 54.2046 18.3322 53.8261 18.4527C53.4562 18.5645 53.1595 18.7451 52.9358 18.9946C52.7121 19.2441 52.6003 19.5623 52.6003 19.9494C52.6003 20.3279 52.7337 20.6118 53.0003 20.8011C53.267 20.9817 53.6025 21.1279 54.0068 21.2398C54.4197 21.3516 54.8412 21.4763 55.2713 21.614C56.0369 21.8548 56.7552 22.1516 57.4261 22.5043C58.0971 22.8484 58.639 23.2742 59.0519 23.7817C59.4648 24.2892 59.6627 24.9086 59.6455 25.6398C59.6455 26.4484 59.4003 27.158 58.91 27.7688C58.4283 28.3795 57.8003 28.8441 57.0261 29.1623C56.2519 29.4806 55.4304 29.614 54.5616 29.5623Z" fill="#212123"/>
<path d="M68.6679 19.0978H65.9582L65.9453 29.3172H63.2614L63.2743 19.0978H61.2227V16.414H63.2743L63.2614 12.3623H65.9453L65.9582 16.414H68.6679V19.0978Z" fill="#212123"/>
<path d="M70.4618 24.4785V16.414H73.1457V23.8204C73.1457 24.3967 73.2876 24.9215 73.5715 25.3946C73.8554 25.8677 74.2339 26.2462 74.707 26.5301C75.1801 26.8054 75.7005 26.943 76.2683 26.943C76.8446 26.943 77.365 26.8054 77.8296 26.5301C78.3027 26.2462 78.6769 25.8677 78.9521 25.3946C79.236 24.9215 79.3779 24.3967 79.3779 23.8204V16.414H82.0618L82.0747 29.3172H79.3908L79.3779 27.9236C78.9392 28.457 78.393 28.8785 77.7392 29.1881C77.0855 29.4978 76.3844 29.6527 75.636 29.6527C74.6812 29.6527 73.8123 29.4204 73.0296 28.9559C72.2468 28.4914 71.6231 27.8677 71.1586 27.0849C70.6941 26.3021 70.4618 25.4333 70.4618 24.4785Z" fill="#212123"/>
<path d="M94.5376 9.96234H97.2215V29.3172H94.5376V27.4204C94.1161 28.0914 93.5656 28.6333 92.886 29.0462C92.2064 29.4505 91.4107 29.6527 90.4989 29.6527C89.5613 29.6527 88.6839 29.4763 87.8666 29.1236C87.0494 28.7709 86.3269 28.2849 85.6989 27.6656C85.0796 27.0376 84.5935 26.315 84.2408 25.4978C83.8882 24.6806 83.7118 23.8032 83.7118 22.8656C83.7118 21.9279 83.8882 21.0505 84.2408 20.2333C84.5935 19.4075 85.0796 18.6849 85.6989 18.0656C86.3269 17.4376 87.0494 16.9473 87.8666 16.5946C88.6839 16.2419 89.5613 16.0656 90.4989 16.0656C91.4107 16.0656 92.2064 16.272 92.886 16.6849C93.5656 17.0892 94.1161 17.6226 94.5376 18.2849V9.96234ZM90.5247 27.0591C91.2817 27.0591 91.9441 26.8742 92.5118 26.5043C93.0796 26.1258 93.5183 25.6183 93.8279 24.9817C94.1462 24.3451 94.3054 23.6398 94.3054 22.8656C94.3054 22.0828 94.1462 21.3731 93.8279 20.7365C93.5097 20.1 93.0667 19.5968 92.4989 19.2269C91.9398 18.8484 91.2817 18.6591 90.5247 18.6591C89.7763 18.6591 89.0925 18.8484 88.4731 19.2269C87.8624 19.6054 87.372 20.1129 87.0021 20.7494C86.6408 21.386 86.4602 22.0914 86.4602 22.8656C86.4602 23.6484 86.6451 24.358 87.015 24.9946C87.3935 25.6226 87.8882 26.1258 88.4989 26.5043C89.1183 26.8742 89.7935 27.0591 90.5247 27.0591Z" fill="#212123"/>
<path d="M100.313 16.414H102.996V29.3172H100.313V16.414ZM101.68 14.543C101.267 14.543 100.923 14.4097 100.648 14.143C100.373 13.8763 100.235 13.5408 100.235 13.1365C100.235 12.7408 100.373 12.4097 100.648 12.143C100.923 11.8677 101.263 11.7301 101.667 11.7301C102.063 11.7301 102.399 11.8677 102.674 12.143C102.949 12.4097 103.087 12.7408 103.087 13.1365C103.087 13.5408 102.949 13.8763 102.674 14.143C102.407 14.4097 102.076 14.543 101.68 14.543Z" fill="#212123"/>
<path d="M111.534 29.6527C110.347 29.6527 109.263 29.3473 108.283 28.7365C107.311 28.1258 106.532 27.3086 105.947 26.2849C105.371 25.2527 105.083 24.1129 105.083 22.8656C105.083 21.9193 105.251 21.0376 105.586 20.2204C105.921 19.3946 106.382 18.672 106.967 18.0527C107.56 17.4247 108.248 16.9344 109.031 16.5817C109.814 16.229 110.648 16.0527 111.534 16.0527C112.721 16.0527 113.801 16.358 114.773 16.9688C115.754 17.5795 116.532 18.4011 117.109 19.4333C117.694 20.4656 117.986 21.6097 117.986 22.8656C117.986 23.8032 117.818 24.6806 117.483 25.4978C117.147 26.315 116.683 27.0376 116.089 27.6656C115.504 28.2849 114.82 28.7709 114.038 29.1236C113.263 29.4763 112.429 29.6527 111.534 29.6527ZM111.534 26.9688C112.248 26.9688 112.889 26.7795 113.457 26.4011C114.025 26.0226 114.472 25.5236 114.799 24.9043C115.134 24.2763 115.302 23.5968 115.302 22.8656C115.302 22.1172 115.13 21.429 114.786 20.8011C114.451 20.1731 113.999 19.6742 113.431 19.3043C112.863 18.9258 112.231 18.7365 111.534 18.7365C110.829 18.7365 110.188 18.9258 109.612 19.3043C109.044 19.6828 108.592 20.186 108.257 20.814C107.93 21.4419 107.767 22.1258 107.767 22.8656C107.767 23.6312 107.939 24.3236 108.283 24.943C108.627 25.5623 109.083 26.057 109.651 26.4269C110.227 26.7881 110.855 26.9688 111.534 26.9688Z" fill="#212123"/>
</svg>
